<svg xmlns="http://www.w3.org/2000/svg" width="100" height="100">
  <path d="M79.7 50.7h7.4a12.7 12.7 0 0 1 11.2 6.5 35 35 0 0 0-18.4-23c-10.8-4-36-2.8-39.4-1.8-3.5 1.1-8.2 9-8.2 9a.5.5 0 0 1-.4.2l-20.1 1a5.8 5.8 0 0 0-5.4 4.8L5.7 51h.4l.3-.1 1.2-.1h14.9a7.2 7.2 0 0 1 7.2 7.2v5H67a12.7 12.7 0 0 1 3.8-8.5 12.7 12.7 0 0 1 9-3.7zM54.4 41a.5.5 0 0 1-.5.5H36.6a.5.5 0 0 1-.4-.8c1.7-2.4 4-5 5.2-5.4 1-.3 6.2-.7 12.5-.8 0 0 .2 0 .3.2l.2.3zm4.9.5a.5.5 0 0 1-.5-.5v-6a.5.5 0 0 1 .5-.5c11.2.2 18 1.3 19.5 2.2.4.3 2.6 1.6 5.2 4a.5.5 0 0 1-.3.8H59.3z"/>
  <path d="M22.5 51.6H7.6a6 6 0 0 0-2.3.5 6.2 6.2 0 0 0-4 5.8v5h8v-.5l.1-.6.3-.7.2-.6c0-.3.2-.5.3-.7l.4-.5c.1-.3.3-.4.5-.6 0-.2.2-.3.4-.5l.6-.5.4-.3.7-.4.5-.3 1-.3.4-.1a7.3 7.3 0 0 1 2.8 0l.5.1.9.3c.2 0 .3.2.5.3l.7.4c.2 0 .3.2.5.3l.6.5.4.5.5.6.3.5.3.6.3.7.2.7.1.6v.6h5v-5.1a6.2 6.2 0 0 0-6.2-6.3zm64.6 0h-7.4c-3.1 0-6.1 1.3-8.3 3.5a11.7 11.7 0 0 0-3.5 7.9h3l.1-.6.1-.6.2-.7.3-.7.3-.6.3-.5.5-.6.4-.5.6-.5.5-.3.7-.4.5-.3.9-.3.5-.1a7.3 7.3 0 0 1 2.8 0l.5.1.9.3.5.3.7.4.4.3.6.5.5.5.4.6.4.5.3.7.2.6.3.7v.6l.2.5h13.4A11.7 11.7 0 0 0 87 51.6z"/>
  <path d="M78.2 57.1a6.3 6.3 0 0 0 0 12.7 6.3 6.3 0 0 0 0-12.7zm0 8.8a2.4 2.4 0 1 1 0-4.9 2.4 2.4 0 0 1 0 4.9zM16.5 57a6.3 6.3 0 1 0 0 12.7 6.3 6.3 0 0 0 0-12.7zm0 8.8a2.4 2.4 0 1 1 0-4.9 2.4 2.4 0 0 1 0 4.9z"/>
</svg>