<svg xmlns="http://www.w3.org/2000/svg" viewBox="0 0 100 100">
  <path d="M22.3 26.7C16 30.1 10 32.3 8.3 33c-3.3 1-4.9 1.6-5.6 5C2 41 7 44.8 10 47.6c1.8 2 2 3.8 2.2 6.3a174 174 0 0 0 36.9 4.5h1.6A174 174 0 0 0 87.7 54c.3-2.5.4-4.3 2.2-6.3 3.1-2.9 8.1-6.6 7.4-9.9-.7-3.3-2.3-3.8-5.7-5-1.6-.5-7.6-2.7-14-6-5.5-3-22-14.5-28-14.5S27.7 23.9 22.3 26.7zm28 4.6c3.6 0 7 1.6 9.3 4.4-.3 8-4.4 14.3-9.3 14.3-5 0-9.1-6.3-9.4-14.3 2.3-2.8 5.7-4.4 9.4-4.4zM12.8 62a40.3 40.3 0 0 0 37.3 25.7c16.3 0 31-10.2 37.3-25.7A154 154 0 0 1 50 66.4c-13.1 0-26-1.6-37.3-4.4z"/>
</svg>