<svg xmlns="http://www.w3.org/2000/svg" viewBox="0 0 100 100">
  <path fill="none" d="M43.3 62.4l-7-4.5-3.4-2.3-4.9-3.2c-1.9-1.3-4.5-.6-5.5 1.4-1.6 3.1-3 6.8-3 9 0 6.7 5.6 8.8 13.7 8.1 3.3-.2 6.4-.8 9-1.5a3.9 3.9 0 0 0 1.1-7zM52 72.2c-.3-.4-.9-.5-1.4-.2-.2.1-.5.4-.6.7-.1-.3-.4-.6-.6-.7-.5-.3-1-.2-1.5.2-2 2-5.2 5.3-5.9 7.4-1.2 3.2-.4 6.7 1.8 7.9 2 1.1 4.8-.5 6-3.8l.2-1c0 .4.2.7.3 1 1.1 3.3 3.8 5 6 3.8 2-1.2 2.9-4.7 1.7-8-.7-2-3.8-5.3-6-7.3zM71.3 52.4l-4.9 3.2-3.4 2.3-7 4.5a3.9 3.9 0 0 0 1.1 7c2.7.7 5.7 1.3 9 1.5 8 .7 13.8-1.4 13.8-8.2 0-2.1-1.5-5.8-3-8.9-1.1-2-3.7-2.7-5.6-1.4z"/>
  <path d="M50 5C27.8 5 9.9 27.7 9.9 49.8v15c0 7.3 5.8 13.2 13 13.2 3.2 0 5.6 2.6 5.4 5.7l-.4 5.9a5 5 0 0 0 5 5.4H67a5 5 0 0 0 5-5.3l-.3-6A5.4 5.4 0 0 1 77 78c7.3 0 13.1-5.9 13.1-13.1v-15C90.1 27.6 72.1 5 50 5zM19.4 62.7c0-2.1 1.5-5.8 3-8.9 1.1-2 3.7-2.7 5.6-1.4l4.9 3.2 3.5 2.3 6.9 4.5c2.8 1.9 2.1 6-1 7-2.7.7-5.8 1.3-9.1 1.5-8 .7-13.8-1.4-13.8-8.2zm36.8 24.8c-2 1.1-4.8-.5-6-3.8l-.2-1c0 .4-.2.7-.3 1-1.1 3.3-3.8 5-6 3.8-2-1.2-2.9-4.7-1.7-8 .7-2 3.8-5.3 6-7.3.3-.4.9-.5 1.4-.2.2.1.5.4.6.7.1-.3.4-.6.6-.7.5-.3 1-.2 1.5.2 2 2 5.2 5.3 5.9 7.4 1.2 3.2.4 6.7-1.8 7.9zm10-16.6c-3.4-.2-6.4-.8-9-1.5a3.9 3.9 0 0 1-1.2-7l7-4.5 3.4-2.3 4.9-3.2c2-1.3 4.5-.6 5.5 1.4 1.6 3.1 3 6.8 3 9 0 6.7-5.6 8.8-13.7 8.1z"/>
</svg>