<svg xmlns="http://www.w3.org/2000/svg" viewBox="0 0 100 100">
  <path d="M55.4 4a1 1 0 0 0-.3 0c-.9.3-1.6 1-1.6 2a1 1 0 0 0 0 .3L59 18.6c-8.3.5-17.8 1.7-26 6.3-8.6 4.7-15.7 13.2-18.2 28a1 1 0 0 0 1.8.6c10.6-15 22.8-20 42.2-20.8l-5.1 11.8a1 1 0 0 0 0 .4 2 2 0 0 0 1.1 1.8 1 1 0 0 0 .6 0c.8 0 1.6-.3 2.3-.8l26.3-18c.9-.6 1.4-1.5 1.4-2.5s-.5-1.9-1.4-2.5l-26.3-18c-.6-.4-1.3-.7-2-.8a1 1 0 0 0-.2 0zm28.9 42a1 1 0 0 0-.8.5c-10.6 15-22.8 20-42.2 20.8l5.1-11.8a1 1 0 0 0 0-.4 2 2 0 0 0-1.1-1.8 1 1 0 0 0-.6 0c-.8 0-1.6.3-2.3.8L16.1 72c-.9.6-1.4 1.5-1.4 2.5s.5 1.9 1.4 2.5l26.3 18c.6.4 1.3.7 2 .8a1 1 0 0 0 .5 0c.9-.2 1.6-1 1.6-1.8a1 1 0 0 0 0-.4L41 81.4c8.3-.5 17.8-1.7 26-6.3 8.6-4.7 15.7-13.2 18.2-27.8a1 1 0 0 0 0-.2 1 1 0 0 0 0-.1 1 1 0 0 0-1-1z"/>
</svg>