<svg xmlns="http://www.w3.org/2000/svg" viewBox="0 0 100 100">
  <path d="M50 59.9c-12.7 0-24.6-1.1-33.8-3.2l-2.7 20.8a5.2 5.2 0 0 0 4.4 5.8c5.6.7 13.8 1.3 21 1.6 1.8.1 3.5-.6 4.8-1.9l2.3-2.3a6.4 6.4 0 0 1 4.5-1.9c1.7 0 3.3.7 4.5 1.9l2.2 2.3c1.3 1.3 3 2 4.8 1.9 6.8-.3 14.8-.8 20.2-1.5a5 5 0 0 0 4.4-5.7l-2.7-20.8c-9.3 1.8-21.3 3-33.9 3zm-8.5 12.8c-1.8 1.3-4.8 3-8.2 3-3.4 0-6.4-1.7-8.2-3-1-.7-1-2.2 0-2.9 1.8-1.3 4.8-3 8.2-3 3.4 0 6.4 1.7 8.2 3 .9.7.9 2.2 0 2.9zm33.3 0c-1.8 1.3-4.8 3-8.2 3s-6.4-1.7-8.2-3c-1-.7-1-2.2 0-2.9 1.8-1.3 4.8-3 8.2-3s6.4 1.7 8.2 3c1 .7 1 2.2 0 2.9zM83.3 36.2l1 4.1c.3 1.2-.5 2.4-1.7 2.7-1.2.3-2.4-.5-2.7-1.7l-4.7-20a8 8 0 0 0-9.6-6l-8.5 2a31.4 31.4 0 0 1-14.3 0l-8.5-2a8 8 0 0 0-9.6 6l-4.7 20c-.3 1.2-1.5 2-2.7 1.7-1.2-.3-2-1.5-1.7-2.7l1-4.1c-8.8 2-14.2 4.8-14.2 8 0 6.2 21.3 11.2 47.5 11.2s47.5-5 47.5-11.2c.1-3.1-5.3-5.9-14.1-8z"/>
</svg>