<svg xmlns="http://www.w3.org/2000/svg" viewBox="0 0 100 100"><path d="M50 46a6 6 0 0 1 6 6c0 8-12 8-12 0a6 6 0 0 1 6-6zM53 40.4V28.2A24 24 0 0 1 70.8 40l-11.3 4.7a12 12 0 0 0-6.5-4.3zM40.3 59l-7.7 9.4c-5.7-6-8-14.5-5.7-22.9l11.3 4.8c-.5 3.3.3 6.2 2.1 8.7zM40.5 44.8L29.2 40A24 24 0 0 1 47 28.2v12.2a12 12 0 0 0-6.5 4.4z"/><path d="M84.6 75.8a42 42 0 1 0-69.2 0c-3 1.8-4.4 3.8-4.4 6.2 0 6.7 9.8 9 39 9s39-2.3 39-9c0-2.4-1.5-4.4-4.4-6.2zM50 82a30 30 0 1 1 0-60 30 30 0 0 1 0 60z"/><path d="M55.8 62.5l7.4 9.5a23.8 23.8 0 0 1-26 .3l7.7-9.5c3.6 1.7 7.4 1.6 10.9-.3zM61.8 50.3l11.3-4.8c2.3 8.3 0 16.6-5.3 22.6L60 58.3c1.7-2.6 2.1-5.2 1.7-8z"/></svg>