<svg xmlns="http://www.w3.org/2000/svg" version="1" viewBox="0 0 595 842">
  <path d="M432 275l1-5 1-8-1-4 1-7-4-10v-19l-5-32-11-33-7-18-8-5v-1 1l-4-3-26-6-34-1-7-5-7-4-4-3-3 1-1-1-4-5-4-1V92l2 2 4-1 4-5 1-4 1-7-3-7v-6l-2-1-1-2-1-4-1-5 2 2-2-4v-5l-1-4-2-3-1-4-4-4-6-6-11-4-5-2-4-2-11 2-14 1-5 1-7 5-3 4v3l-4 1-2 4-3 10 1 11v7l1-1 1 2v5l2 3h-3l-1 3 2 4 2 8-1 7 4 6h6l4 6 1 2-5 5-2 3-4-3-4-1-2 4 1 5 1 3-4 5-8 9-7 18-5 8 1-1h-1l-5 6h-4l-2 7v6l-10 17 1 5-5 4-3 8-6 13-5 4-1 8-4 9 2 8v21l2 6 2 6 8 3 8 2h11l8-2 3-4 10-9 5-3v9l-1 18-4 20-3 3 1 1-2 5-2 7-7 40 1 4-2 20-2 29-1 15 2 2 8 3 6 3v-1l6 32 4 25 6 4 5 16-1 40v16l1 1 5 7 8 139-2 4-2 7-4 13 9 2-9-2-2 2-9 6-8 5-11 4-6 1h-9l-2 2-2 7 1 3-2 4 3 1 16 2h32l12-3 9-6 1 2 26 1 17-3 1-10-1-2 2-3-1-12-1-1-6-2 7 2-1-6-2-7-3-5 1-4 1-33-1-7h1-1v-4l3-10 2-13 3 16v13l-1 11 3 15 10 33 1 9 4 8 2 3 4-2v16l-2 4v10l-2 3 1 4 7 3 15 3 22-2 11-7-1-5 1-6-5-8 1-12-2-4-8 1 9-1 5-13 5-22v-21l-2-4 3-7-1-23h1l-1-1-1-20-6-24-3-34-3-8 1-29-1-15-4-10 10-30 4-43-1-38-4-37 11-10v-6l3-1 1 3 15-25-1-8v-16l5-6 2-3 1-1h-1l1-1 2-10 3-6-1-4 4-5 4-13 2-4-2-8zM257 144v2l8 4-9-5-9-2 9 1h1zm1-10h-11l9-4-2 4 4-1z"/>
</svg>