<svg xmlns="http://www.w3.org/2000/svg" viewBox="0 0 303 800" version="1">
  <path d="M70 762c-9-10-7-16-7-26 0-8-2-3-6-17-5-15-5-19-6-42-1-21-1-26 1-37 2-10 2-13 0-16l-2-14c0-9 1-12 6-23l9-35c4-18 6-24 8-27 3-3 3-3 2-10a546 546 0 0 1-8-109c-1-1-5-26-6-44-1-14-2-17-4-20-2-2-3-6-3-21l-1-18h-5c-8 1-25-4-31-7-4-2-8-6-10-9-6-9-7-15-7-37 0-24 2-34 8-41 3-4 4-6 4-17l2-17 12-17c10-13 11-15 14-24 1-5 3-8 11-15l18-15c11-8 36-19 40-19 3 0 6-2 8-5 7-7 8-10 6-15-2-8-2-13 3-17 5-3 7-12 7-24 0-6 1-7 5-11 5-5 15-10 28-12 16-3 39 2 44 10 2 2 3 7 3 11l5 19c3 10 3 12 2 17l-2 14c0 6-1 9-3 12l-5 10c0 3-2 8-4 11l-3 4 5 1c9 2 12 5 20 17l15 21c9 9 12 16 17 40 3 10 7 18 14 29 5 6 6 10 9 31 3 18 2 33-2 46-3 7-3 10-2 18 2 12 2 30 0 36l-8 14c-5 5-7 9-6 11l-4 10c-3 4-5 9-5 11 0 4-4 14-12 33-3 6-3 9-3 36l1 47c1 15 1 21-1 33l-3 30c-1 13-1 15-4 19s-4 6-5 14l1 36c1 12 2 16 5 21 3 4 4 10 5 16 1 5 4 5 0 11 2 3 8 5 13 7 8 4 38 13 42 13s8 5 8 10c0 6-5 12-11 14a429 429 0 0 1-80 4c-2 0-1 1-3 2-16-1-30-2-36-6-3-2-3-13 0-22 2-6-1-10-9-28-8-21-10-28-11-49l-3-20-2-14v-13l-4 10c-3 10-3 10-1 16 3 5 3 5-2 20-5 17-5 17-3 66l-1 16c-1 6-1 7 2 11s3 4 1 14c0 4-2 4-1 6l13 16c7 8 9 15 9 23s-4 11-14 13c-36 7-70-30-77-37z"/>
</svg>