<svg xmlns="http://www.w3.org/2000/svg" version="1" viewBox="-15 221 369 1127">
  <path d="M184 223c18-5 38 0 52 14 9 9 14 23 14 36l-2 13c1 5 10 3 10 9-1 8-1 16-5 23-3 5-9 7-14 7-4 14-7 28-6 42 0 6 2 11 4 16-8 14-17 27-29 37l-8 5 6 7 7 11-6 7c-1 6 2 10 6 15 4 6 1 13 0 20 3-8 2-18 6-26 5-14 12-28 16-42 3-8 4-16 5-24l2-3c5 2 7 8 11 11 6 3 14 3 20 7 17 6 35 9 50 18 7 3 12 8 15 15 4 6 5 14 6 21 10 52 10 105 8 158-1 27-2 53-1 80 0 20 1 39 3 59 1 19 2 38-3 57h-2c-1-3 1-7-2-8-10-3-20-3-30-4l-11 2c-3 4-1 8 0 12-3-2-9-2-9-6-2-24 1-47 0-71-3 2-6 6-6 10-1 10 2 19 2 28 1 21 2 41 0 62 0 12-2 23-6 34-4 83-11 166-11 249 0 16 3 31 4 47 0 14-1 29 6 42 3 3 2 9-2 11s-9 3-10 8c2 19 12 37 20 54 8 16 14 33 14 50-1 2-1 5-4 6-8 6-19 7-28 4-15-4-28-15-36-29-2-3-6-6-7-11-2-6-1-13-3-19-4-8-11-14-17-21-3-3-6-6-6-11-2-10 0-21 4-31 2-6 5-13 5-20-3-9-3-19-3-29l3-39c0-23-4-47-7-70-6-49-16-99-30-147-9 25-15 50-20 75-8 44-14 88-27 131l-20 72c-5 19-10 38-17 56-6 13-13 25-23 35 1 17-5 34-18 45-10 9-24 13-37 10-5-2-11-4-15-8-2-10-1-20 2-30 6-17 19-31 22-49 2-11-2-21-1-31 1-24 6-47 10-70l20-123c1-11 1-23 3-34l8-20c3-8 3-17 3-25 0-17-3-35-5-52-2-16-2-33 2-50-2-8-10-11-14-18-2-5-1-10-1-15 2-16 8-32 9-48 4-33 6-66 13-98-9 18-10 38-12 57-2 14-4 27-8 40-7-5-14-10-23-10l-10-1-14 5-11 7 5-74c2-16 10-30 12-46 1-10-6-18-6-28 1-9 9-16 10-26 2-21-6-43-1-64 4-17 13-33 18-49 6-20 8-41 14-61 12-6 25-8 37-12l36-8c7-2 14-4 19-9 6-5 11-12 19-14-3 24 3 47 8 70l1 9c2 17 3 34 8 50v-40c2-7 7-12 11-18l-10-7 10-14c2-2 3-5 6-5-7-14-24-22-31-37-5-14 4-29 0-43-2-7-6-12-7-19-4 0-8-2-11-5-5-7-6-17-6-26 1-2 2-4 4-4l8 1c-3-14-3-30 3-44 6-12 19-21 32-24m100 428l-1 17c1 20 4 41 12 60-2-26-5-52-11-77z"/>
  <path d="M-4 789c7-7 18-8 27-8 6 0 12 2 17 7-8 12-4 27-11 40-1 3-4 5-8 7-1-4-3-8-3-13 1-3 4-4 7-4-5-3-4-9-4-13-6 2-10 8-10 14 2 16 14 28 18 42-7 2-14 0-20-4-6-3-11-8-15-13-3-4-4-9-5-14l-4-18c1-9 11-14 11-23zM317 822c9 1 18 1 26 3 3 7 8 13 8 21 1 12-2 24-10 33s-19 14-31 15c-4 0-9 0-13-3-2-4-2-9 1-12 5-4 12-5 18-10 4-3 5-8 5-13 0-9-5-16-9-23-1-1-2-2-1-3l6-8z"/>
</svg>