<svg version="1" xmlns="http://www.w3.org/2000/svg" viewBox="0 0 2600 2600">
  <path d="M1195 101c-11 2-29 8-34 12l-8 3c-20 5-37 18-50 38l-13 24a134 134 0 0 1-130 83c-34 0-69-8-109-25-10-5-10-5 2 4l24 20c17 15 30 25 39 30l5 3h-11a105 105 0 0 1-31-4l5 3 12 9 7 7h-8l-25 1c-20 0-28-2-40-7-7-4-8-4-4-1a145 145 0 0 0 49 30l3 1-4 4c-7 8-11 22-11 37l5 44 1 14 2-6 5-20 4-14v6c3 24 6 42 8 42l2-6 1-6 2 9c5 23 17 44 39 64l21 18-5-11a294 294 0 0 1-11-28l10 11c9 11 26 28 29 30 2 1 2 1 2-1-3-9-6-29-7-38l-1-11 3 3c3 5 22 24 23 24l1-5c0-11 0-11 8-4l7 5 4-4 4-5 5 2c11 3 20 8 28 15 9 10 14 20 14 33 0 16-5 28-20 45a63 63 0 0 0-16 27c-4 13-5 20-8 63-5 47-17 86-55 181a2549 2549 0 0 0-45 116 2072 2072 0 0 0-51 141 331 331 0 0 1-87 117c-35 31-48 47-54 64-2 6-3 9-3 21 0 18-2 30-17 82-10 37-15 61-16 79-1 6-1 7 1 7h23l2-14c2-26 5-38 13-46 6-6 13-9 25-8l8 1 1-5c3-8 4-17 4-31v-13h8c21-2 44-13 57-27 10-11 13-19 15-40l3-20c3-10 11-25 22-41l19-27c14-21 17-27 37-76 23-59 31-75 51-113 15-28 28-54 51-105a2457 2457 0 0 1 58-122c22-48 40-83 46-86 3-2 8-1 12 1 11 7 26 36 34 67 6 27 3 40-21 76a488 488 0 0 0-61 141 498 498 0 0 0-21 52c-25 58-33 82-38 114-8 43-6 68 10 122 7 21 12 42 12 43-1 1-3 2-8 2-8 1-20 5-25 9-13 10-9 31 15 81 20 41 37 58 50 53l5-2a149 149 0 0 1 29 68c3 18 3 63 0 99-3 35-4 65-2 83 2 17 4 23 17 66 41 127 59 214 64 297 1 17 0 44-2 69-3 32-2 60 2 82 4 20 26 90 35 111 14 36 62 75 90 75 5 0 15-3 20-6 6-4 14-13 18-21 8-14 11-29 14-63s5-40 15-64c10-23 11-29 11-45s-2-28-14-78c-10-41-13-53-16-71a558 558 0 0 1 10-236c6-30 7-38 7-59s-1-32-7-49-12-28-37-65c-24-34-30-54-26-82 3-22 13-46 40-92a431 431 0 0 0 36-72c1 0 3 13 4 34 3 31 6 48 9 48s9-4 14-8c16-14 28-44 35-89l3-16-12 4-14 8c-4 4-4 4-4-8 2-27 6-49 17-98a570 570 0 0 0 18-200c-1-18-4-30-11-51-10-29-11-37-4-61 3-11 3-14 3-23 0-12-1-15-10-35l-9-20c-2-9-1-28 3-57l5-33 15-75a1555 1555 0 0 0 12-61l7 11c21 34 49 75 101 148 48 67 47 64 88 136 25 45 42 68 66 93 23 25 30 37 50 84 14 35 24 53 35 64 10 11 21 18 35 24l56 17 19 38 6 14 5-2c14-5 22 0 34 20 10 17 17 22 27 19 5-1 13-6 19-11l4-4-18-26c-45-64-70-105-87-142l-8-16-6-1h-6l-9-12c-11-16-28-38-48-61-41-50-51-64-81-112a3043 3043 0 0 1-127-222c-22-40-32-60-51-105-33-78-50-106-79-135-13-13-22-20-43-34-42-28-61-55-96-140-44-106-82-168-119-195a84 84 0 0 0-60-18z"/>
</svg>