<svg version="1" xmlns="http://www.w3.org/2000/svg" viewBox="0 0 2600 2600">
  <path d="M1273 139c-14 1-38 7-58 13-35 10-65 24-80 38a54 54 0 0 0-17 47c2 15 7 23 26 48 11 15 17 25 19 33l1 14c0 11 1 15 6 16h3l-1 8-1 30c1 35 3 45 17 88 10 29 12 38 11 50s-2 14-10 19c-15 8-36 15-74 25l-68 21c-21 8-42 25-61 50-30 40-73 143-100 238-26 90-42 179-53 292-2 23-3 95-1 120 4 67 15 113 33 137 18 23 50 30 82 17 17-6 32-19 39-32 8-18 8-37-1-85-6-31-6-34-6-57 1-31 6-59 15-97l31-98 27-86 4-18 1-4 2 5a337 337 0 0 1 8 82c-1 35-4 61-18 131a553 553 0 0 0 17 338c15 59 19 83 24 171 6 82 8 100 26 173 20 82 22 92 28 164 8 78 12 100 26 145 13 39 21 73 26 114l9 74c2 19-1 36-8 43l-16 10c-16 8-21 12-24 19-2 4-2 7-2 12 1 7 1 7 5 11 9 8 22 11 51 10 33-1 55-4 137-19l58-11 11-1 2-6 8-38 2-11c10 38 38 63 66 58 17-3 32-15 40-31 10-22 11-45 4-114a435 435 0 0 1 33-224c39-99 58-170 67-257a1001 1001 0 0 0-12-219c-15-101-17-123-20-161-2-25-4-33-10-58-10-41-12-58-10-73 2-10 8-23 22-43 21-30 26-44 26-72 0-22-3-42-12-70-5-17-9-29-26-71-19-48-27-72-30-95-2-13-1-13 6 1 10 21 15 36 27 80 11 43 17 62 26 79l19 32c9 12 18 27 20 32 9 17 15 36 25 78a777 777 0 0 0 13 48l-6 5c-11 9-19 21-23 37-3 10-3 33-1 46 6 28 19 54 37 75 6 7 7 7 10 7l10-4c25-12 42-43 57-101 6-22 7-35 7-54 0-20 0-27-6-62-8-52-9-68-6-112 2-37 2-69 0-85-4-26-12-55-28-101-32-93-33-95-49-161-16-64-24-91-37-119-11-21-19-33-35-49-24-23-51-40-106-66l-46-20c-22-9-46-21-56-28-23-15-34-32-34-51 0-14 2-21 14-45 17-32 19-39 19-53v-9l6-1c9-2 16-5 18-8l1-12c0-13 2-22 10-42 10-25 11-33 6-48-10-29-60-69-113-89-28-11-58-16-79-13zm32 43c16 6 26 20 28 37a43 43 0 1 1-82-16c5-11 18-21 29-23 7-1 19-1 25 2zm44 1571c3 23 7 40 14 50 5 8 16 19 24 24 8 6 15 9 28 13s17 6 20 10c4 5 5 9 5 22-1 12-3 23-12 58-9 33-12 58-17 116a3601 3601 0 0 1-6 91c1 20 2 28 9 60a225 225 0 0 1 3 23c0-2-10-25-19-41-25-47-27-58-34-145l-8-94c-10-95-12-115-13-159-1-30 0-52 2-79l2-15v28l2 38z"/>
</svg>