<svg version="1" xmlns="http://www.w3.org/2000/svg" viewBox="0 0 2600 2600">
  <path d="M1072 160.7c-6.8.6-27.4 4.2-36.5 6.3-38.1 9-62 25.8-72.8 51.3-2.5 6-3.1 9.1-3.7 18.2-.5 9.8-1 11.9-4.3 19-2 4.5-4.3 11-5.1 14.5-7.1 30.1 12.4 92.9 43.5 140 12 18.2 16.1 26.5 16.7 33.5.9 11.3-4.8 15.5-22.8 16.4-18.7 1-20.6 3.5-22.2 29.5-.7 12.1-1.4 16.9-2.7 19.1-.9 1.6-5.3 5.7-9.8 9.1a530.1 530.1 0 0 0-23.3 19 192.5 192.5 0 0 1-47.5 32.6c-19.6 9.8-27.3 15.2-33.1 23-7.1 9.6-7.9 13.8-7.8 38.3.1 34.3 2 43.7 18.3 93 13.3 40.4 23.2 61.8 36.8 79.7 6.4 8.4 9.8 10.6 18.9 12.3 12.8 2.5 14.1 4.3 10.7 15.1-2.5 8.1-1 11.7 9.5 22.8a113.8 113.8 0 0 1 22.8 31.1c7.2 15.1 7.8 20.7 6.8 56.5-1.3 44.8-1 85.3.9 112.7a1153 1153 0 0 1 .2 167.3c-3 38.4-3.7 63.8-4 144-.3 89.5-.2 87.9-6.5 134.6-5.3 39.3-6 47.7-7 92.4-1.1 48-1.8 56.5-6 78.5-6.4 32.3-6.9 39.3-4.8 62.7 1.5 17.8.1 25.6-6.9 36.8-8.5 13.6-10.4 18.2-11.4 27.2-1.7 14.3-3.8 31.9-5.4 43.3-4 30.1-4.8 48.3-9.5 201-1.4 44.7-2.8 56.4-10.1 86a292.4 292.4 0 0 0-9.6 86c.9 32.1 5.2 58.8 14.8 91.5a98.3 98.3 0 0 1 5.6 29.5c.5 13-.1 17-6.8 41.5-3.6 13.2-5 31.6-3 41a40.5 40.5 0 0 0 21.4 28.8c11.2 5.5 20.9 7.4 42.2 7.9 18.7.5 19.1.5 26.5-2.2l19-6.6c13-4.4 17-7.6 19-15.1 1.6-5.9.7-13.1-4.5-33.3-6.8-26.8-7.9-32.8-7.9-46-.1-14.7.7-17.2 11.6-34.5 10.3-16.4 28-51.9 31.9-63.9 7.9-24.7 8-42.1.3-71.3-13.2-50.6-13.7-59.7-5.9-106.3 5.1-30 5.7-40.2 3.9-60.4a473 473 0 0 1-1.5-34.1c0-30.9 4.7-49.3 23.3-90.8 17.6-39.5 17.8-40.3 18.3-82.2.3-31.3.9-37.5 5.6-59 3.2-14.2 4.8-18.1 8.9-21.1 4.1-3 15.7-4.2 34.5-3.5 51.1 1.8 57 1.8 75 .2 9.9-.9 23.6-1.9 30.5-2.2a139 139 0 0 1 32.7 1.4c.6.4 1.6 5.9 2.3 12.3 1.2 12.5 3 21.9 7.9 40.2 2.1 7.9 3.6 17.3 4.6 28 3.3 34.5 3.9 37.5 14.1 64.7a52 52 0 0 1-.1 35c-2.9 8.2-3 9-2.7 24.7.3 15.4.1 16.7-2.3 23.5-5.6 15.4-6 18-4.6 31.6.7 6.9 2.8 23.1 4.7 36.1a871 871 0 0 1 8.9 79.1c2.5 37.8 5.2 55.2 10.9 70.3a409 409 0 0 0 11.5 25.4c10.6 22.2 12.6 28.9 14.6 48.3a128 128 0 0 0 12 45.5c7.6 18.7 10.5 29.5 10.5 38.9 0 2.9-1.2 13.9-2.6 24.2-3.1 22.2-2.8 32.6 1 40.9 6.1 13.5 21.1 19.9 45.8 19.6 12.6-.1 14.3.5 15.3 5.5l1 4.7c.6 3.3 8.1 10.4 13.9 13.1 11.4 5.4 21.6 6.7 67.1 8.7 27.7 1.2 47.1.8 55-1.2a15.6 15.6 0 0 0 11.1-11.5c.3-1.9.4-6.8.2-10.8-.9-14.4-8.7-25.1-35.9-49.6-25.1-22.6-31.8-31.7-36.2-48.8-2-8-2.1-10.6-1.8-31.2.8-50.2.8-51.6-2.3-60.8a312 312 0 0 0-9.7-23.7c-9.6-21.2-10.3-24.8-9.5-51.5.8-25.4 2-52.1 3.7-79 1.5-25.3.5-104.3-1.6-125-.9-8-1.9-23.7-2.5-35-1-24.2-2.3-30.8-9.6-51.7a359 359 0 0 1-13.8-50.3c-2.8-15.5-3.4-30.4-2.3-66.2.9-34.1.9-35-1.2-44.3a59.1 59.1 0 0 1-1.9-12.2c.4-3.8 3.7-5.2 17.7-7.5 6.4-1.1 16.1-3.6 21.6-5.5 26.1-9.1 30-10.1 44-11.8l28.5-3.5c8-1 21-2.4 29-3 21.2-1.7 22.6-1.9 25.6-4.2 6.3-5 6.8-13.2 2.5-39.5l-5.1-31.3c-8.4-52.5-21-101.4-56.3-219.5-17.1-56.9-26.6-91-36.2-129.5-11.7-46.8-15.9-60.4-42.4-138-12-35.1-16.4-52.5-27.7-108.4a885.2 885.2 0 0 0-38.3-141.8c-11.3-33.3-16-44.2-25-57.7a75.7 75.7 0 0 1-11.1-20.8c0-.8 2-.6 6.8.8 39.4 11.3 77.7 15.6 131.2 14.6 49.5-.9 51.6-2 75.3-37.1 19.7-29.1 21.5-32.2 47.2-80.1 5.9-11 13.8-24.7 17.6-30.5 9.7-15 10.3-16.6 9.5-27.7-.8-10.5-.7-10.8 8-23.6a58 58 0 0 0 6.6-12c.9-2.9 1.3-11.2 1.3-26.2v-22l3.9-11.4a47.2 47.2 0 0 1 6-13.3l6.5-5.6c6.1-5.1 7.7-9.5 9.1-24.7 2-20.9 5.4-31.4 14.3-43 1.7-2.2 11.2-12.3 21.2-22.5s23-24.8 29-32.5c21-27.1 39.8-47.9 46.9-52 2.3-1.2 6.7-3 9.8-3.9 7.4-2.1 8.9-4.3 9.9-14.9.4-4.5 1.7-15.2 3-23.7 1.5-10.4 2.3-20.4 2.3-30.3.1-14.5 0-14.9-2.3-16.8-3.1-2.5-6.3-2.4-9.8.3-1.5 1.3-5 3.4-7.6 4.7-9.4 4.7-10.6 8.7-11 36.1-.3 20.4-1.4 25.5-4 19l-4.7-11.2c-5.5-13.3-10.1-18.3-16.7-18.1-2.8.1-4.4.8-6.1 2.9-2.6 3-2.6 2.7-.6 28.1.5 6.8.4 8.7-1 10.8a127.6 127.6 0 0 1-27.9 18.7c-6.8 2.6-7.7 2.4-7.7-1.7 0-14.3-12-16.8-23-4.9-2.5 2.6-11.7 12.3-20.6 21.4a325.5 325.5 0 0 0-20.7 23.1 110.5 110.5 0 0 0-15.8 35.4 80.9 80.9 0 0 1-9.4 23.5c-3.5 6.3-6.9 13.3-7.6 15.5l-1.2 4h-7.1c-3.9 0-8.1.3-9.2.8-1.9.7-2.3.3-3.2-3.6-2.3-9-9.3-15.7-16.4-15.7-3.2 0-4.1.4-4.5 2.1-.5 1.9-.8 1.8-4-1.3-2.9-2.8-4.1-3.3-7.8-3.2-2.4 0-5.5.8-6.8 1.7l-2.5 1.6-.6-5.1c-1.8-13.7-8.3-15.8-19.4-6.4a32.8 32.8 0 0 1-10 5.2c-10.4 2.8-14 4.5-18.6 8.5-6.4 5.7-11.7 14.2-25.7 41.4-20.4 40-22 41.9-44.3 52.9-12 6-16.4 8.7-19.8 12.4-4 4.3-4.6 4.6-6.8 3.5-4.7-2.3-11.5.4-28.4 11.6-11.9 7.9-15.4 8.9-23 6.7-7.1-2.1-14.4-7.1-26.3-18.2a213 213 0 0 0-34.4-27.5c-7.8-3.9-13.9-4.6-50.9-5.9-41.5-1.5-59.6-1.3-72.2.6-10 1.6-11 1.6-16-.1-10.5-3.3-27.3-14.3-30.9-20.1-2.5-4.1-2.5-4.1 1.4-6 1.7-.9 6.4-4.4 10.3-7.8 3.9-3.4 9.7-8.1 12.8-10.5 10.3-7.8 14.6-16.1 16.6-31.8.6-4.8 2.3-13.5 3.7-19.3 3-12.1 3.3-20.2 1.7-49.5-1.2-20.8-2.6-25.9-7.8-28.3-1.9-.8-3-2.7-4.5-7.5-3.8-12.6-3.8-14.5.8-24.5 4.3-9.3 4.8-12.7 3-18.3-3.9-11.4-20.9-47-24.7-51.4-1-1.1-3.9-3.7-6.5-5.8-5-4.1-5.4-5.2-3.5-12 1-3.9.9-4.9-1.6-10.2a62.4 62.4 0 0 0-24.1-23.7c-8.5-4.4-20.8-8.3-31.8-10.2-9-1.5-27.7-2.6-34.7-1.9z"/>
</svg>