<svg version="1" xmlns="http://www.w3.org/2000/svg" viewBox="0 0 2600 2600">
  <path d="M1834 456c-61 8-116 32-157 69-19 17-29 26-46 39-43 33-59 49-73 74-16 26-25 67-29 120v82l1 7v-10c1-16 5-29 16-63l11-32v14l-3 27c-6 26-6 58-3 140l3 57c0 27 0 27 5-18l2-30 5 10a389 389 0 0 1 25 83l-11-1-11-1-6-5-18-15-8-7h-37l-40 2h-4v36h-4l-28-3-23-2v-5a674 674 0 0 1 2-43l-12-1-49-5c-3 0-3 0-3-7l-1-7c-3 0-26-3-27-2l-1 7v6h-22l-52-2h-29l-4-8-16-36-11-27-20-4-20-3a1323 1323 0 0 0-19 89c-1 2-3 3-11 7l-11 4v16l1 15 13 9 12 8h-30v14c0 13 0 14-2 14l-272-3h-7l-24-42-24-42-45 11a6469 6469 0 0 0-31 142l-236 3c-217 1-235 1-238 3l-8 7c-16 17-17 39-4 63l8 14 4 5h7l232 5 236 6h11l4 16 5 17a719 719 0 0 0 80-2l-31 20c-12 6-21 14-24 21s-2 16 1 24l3 6c-12 5-16 12-13 23 2 6 5 11 10 16l3 2-3 4c-3 5-5 12-5 22 0 9 1 12 6 17 7 5 7 7 6 15-1 7-1 7 1 11 4 5 11 10 18 13l20 5 20 5 4 2 1 51v52h56l4 14c13 47 23 100 32 168 5 30 8 45 12 58 11 33 29 53 51 57l55 11 49 9 7-15 7-16 20-4 19-4a3581 3581 0 0 0 12-114 895 895 0 0 1 112-155 1857 1857 0 0 0 113-141l24-22 19-16 2 7c2 8 4 13 11 22l4 7v20c1 23 2 32 9 57 6 18 9 29 25 69 13 31 18 47 22 62 3 10 3 21 2 52-2 24-1 27 10 62 5 13 10 28 10 33 2 10 2 25 1 25l-7 2c-17 3-28 15-33 35l-1 23c1 18 3 28 7 37 4 8 8 12 19 21 10 7 14 12 14 18 0 5-4 16-12 30-26 47-41 88-48 129-2 16-2 49 1 63 7 34 28 70 52 90 30 24 65 37 126 45 127 17 269 4 447-41 68-17 88-25 108-45 18-19 24-37 26-76l1-23a269 269 0 0 0-23-146l-10-24c-3-8-3-10-2-40v-14l-5-12-6-16c-2-8-2-30-1-45l1-56c1-62 0-60 27-86 9-8 13-15 13-23 0-7-3-14-11-26-16-23-17-31-8-64 3-9 6-20 6-25l1-10h5l119-2c45-4 75-12 98-25l18-15c9-9 10-11 15-20 7-16 9-25 9-48 0-15 0-20-2-29-6-27-18-51-38-75-7-9-16-18-35-33-37-31-49-44-58-66-6-14-8-27-13-60-5-41-11-60-24-80a99 99 0 0 0-45-37 5049 5049 0 0 1 93-108c39-43 56-64 75-97 12-21 29-58 29-64 0-5-74-145-95-180-9-16-13-21-19-23-8-4-22-1-35 7a793 793 0 0 1-140 212l2-28c0-36-2-57-13-94-25-85-69-152-125-191-25-16-57-28-91-34-13-2-56-2-70-1zm-800 808a90070 90070 0 0 0-46 333c0 2 0 2-2 1-5-5-11-21-17-42l-4-15v-138-138l32-1 35-2c2 0 3 0 2 2z"/>
</svg>