<svg xmlns="http://www.w3.org/2000/svg" viewBox="0 0 595 842" version="1">
  <path d="M205 179v-2 2zm-12 25h-2s0 2 2 0zm222 58c2-20-39-116-39-116-2-11-24-19-24-19l2-3c-1-18-20-26-20-26-9-1-4-6-4-6 0-72-62-79-62-79-48-9-58 70-58 70 3 11-1 24-1 24-3 9-8 7-8 7 5 3 6 0 6 0s7-3 2 0c-5 4-3 10-3 10l6-8-4 24c-4 15-21 13-21 13l4 2c10 9 16 6 18 5v1c-2 12-6 14-7 15 3 0 5-4 5-4l-2 5v3c-1 9-18 12-18 12 7 5 13 0 13 0l-3 5-4 7 5-1-4 8c-22 17-7 23-7 23l1-3c2-10 5-5 5-5l-3 10c3 16-10 27-10 27l1 1c4 0 6-2 6-2l6-3-2 5c-9 4-9 24-9 24 9 8 4 19 4 19v6c-1 2 1 8 1 8 0 4-2 5-2 5-3 3-1 21-1 21l1 1c-5 12-2 12-2 12l13 21-10 42 13 17c-3 3 7 69 7 69l1 5c0 23-5 65-5 65-13 26-5 82-5 82s-3-32 1 5c3 37 1 63 1 63-3 8-5 24-5 24 0 8-4 17-4 17-6 37-4 39-4 39 3 11 28 3 28 3 3-1 5-13 5-13s1-31 5-40l1-1c2-7-3-16-3-16-3-9 3-42 3-42 8-24 15-80 15-80-2-13 3-39 3-39 5-15 9-43 9-43 2-3 14-91 14-91l27 1 23 110c7 14 13 40 13 42 1 16 9 52 9 52 11 24 21 74 21 74-4 13-1 23-1 23-1 31 1 53 1 53 0 12 35 5 35 5 9-13-7-62-7-62l-1-6c-2-13-7-25-7-25l-2-54c5-44-3-68-3-68l-10-32-5-38 2-76 3 1c2-5 4-50 4-50 6-1 9-5 9-5 5-4 5-11 5-11 7 0 7-4 7-4l32-87c5-13-6-27-6-27zm-175 17c-5 6-4 8-4 8s-19 45-24 45h-1l-2 1s9-41 19-56l3-25-3-16s4 12 10 14 8 23 2 29zm139-2l-2 8s-3 42-5 52l-1 1c-2 7-5 13-4 15 0 0-10 14-5 16l2 2-7-1s-6-5-5-16l-5-4-2-15 5-2s-6-38-10-46l6 11 4 5s5-3 4-11c0 0-4 1-5-5-2-7 0-2 0-2s5 0 5-8 5 7 14 0l4-5 2-5-6-4s-7-3-8-13c0 0-2-9 6-13 0 0 6 28 11 26 0 0 4 4 1 8 0 0 3 2 1 6z"/>
</svg>