<svg xmlns="http://www.w3.org/2000/svg" viewBox="-14.6 221.1 350.8 1095.9">
  <path d="M142.8 222.5a56.5 56.5 0 0 1 31.4 2c7.6 3 14 8.6 18.8 15.1 8 10.8 13.1 23.4 20.2 34.8 4 5.7 10.1 9.3 14 15 2.2 3 3 7.3 1.1 10.6-1.5 2.4-3.9 4.2-5 6.8-1.9 5.1-.4 11.4 4.2 14.5 5.2 4 13.1 6.4 15 13.4-2 20.2-3.6 41.9 6 60.6 1.1 3.2 4.7 4.2 7.7 5.2 5.5 1.7 12 2.4 15.7 7.2 4.6 6.2 6.9 13.7 9.3 21 5.4 17.7 9 35.9 12.4 54 2.4 12.9 6 25.4 9 38 3.2 13.5 3 27.5 6.5 40.9 2.3 8.5 7.1 16 9.9 24.2a324.1 324.1 0 0 1 15.8 67 172 172 0 0 1-2.6 57c-2 8.8-4.6 18.2-11.4 24.6a18 18 0 0 1-10.2 4.7c-2 7.3-9 11.7-11.7 18.6-3.3 11.8.1 24-.4 36-1 26.6-1.6 53.3-2.2 80-.5 23.6-1.7 47.3-2.3 71-.5 33.3.4 66.7-1.4 100-5.4 74.8-9.4 150-22.5 224-2 9.7-4 19.6-8.4 28.6-1.8 4-5 7.4-9 9.2-.8 2.8-1.4 5.6-2.4 8.3a80.3 80.3 0 0 1-31.8 1.2c-3.6-.4-6.3-3-7.7-6.2-2.2-5-2.4-10.8-5.5-15.4-3.2-5-7.5-9.6-8.2-15.6-2.4-16.4-.2-33 1.9-49.2 6.3-44.4 6.1-89.4 11.1-134 2.1-17.6 4.6-35.2 5.3-53 1.6-32.3 0-64.6-2-97-2-43.8-14.7-86.2-27-128-5.4 6.2-8.5 14-10.7 21.9-12.3 41.7-21.4 84.2-32.7 126.1-5.5 20.8-12 41.4-17.6 62.2-12.2 44-23.5 88.4-34.3 132.9a993.4 993.4 0 0 1-18.1 67c-4.8 15.7-7 32.3-13.6 47.5a44.4 44.4 0 0 1-18 21.6c-1.9 5.6-2 12.3-6.3 17a61.4 61.4 0 0 1-32.3 0c-3-.7-5-3.1-6.3-5.7-2.4-4.8-2.8-10.2-4.7-15.1-2-5.5-5.3-10.5-6.2-16.4-.8-6.4 1.8-12.6 3-18.9 2.4-10.6.6-21.6 2.8-32.2 3.5-19.8 9.2-39.2 14-58.7 6-24 10.6-48.2 16-72.2 4.3-20.8 10.3-41.2 15.2-61.8 5.4-22 7.1-44.7 14.5-66.1 2.8-8.3 7.1-16 8.6-24.7 1.2-9.7-3.5-18.6-6.4-27.6-6.1-19.4-12.9-38.5-18.9-58-2.4-7.9-5.7-15.6-6.7-23.9a38 38 0 0 1 3-20.2c-3.3-5-6.7-10.4-6.9-16.7-.2-7.8 2-15.3 3.1-23 4-24.1 11.1-48.2 8.7-72.9-.8-11.3-2.1-22.7-2.2-34 0-54 .6-108.1 4.1-162 1-16.7 1.2-33.3 3.1-49.9a80 80 0 0 1 5.5-23c2.5-5.8 8.4-8.8 14-11.2 8.7-4 18.4-6.3 26.3-11.9a42 42 0 0 0 0-17c-2.3-13-8.6-25-11.8-37.9-2.5-9.6-3-19.7-.8-29.4 2.6-14.8 15.5-24.8 20-38.9 1.7-5.7 4-11.3 6.4-16.7a105.3 105.3 0 0 1 21-34 41 41 0 0 1 21.6-11.3m-17.7 178.3c.4 7.6 1.6 15.2 1.6 22.8.1 13.1 2.2 26 3.3 39.1 1.2 13.7 3 27.3 4.7 41 2.6 5.5 5.9 10.9 8.6 16.5 5.5 11.1 12.8 21.2 19.2 31.9 3.6 6.3 8 12.1 12 18.3 1.3-6.6 2-13.3 3.5-19.9l7.6-24.9c1.8-6.3 4.7-12.3 5.3-18.9 1.6-10.3 2.9-20.8 6.2-30.8 2.2-6.9 3.2-14.1 4-21.3.3-8.3-.2-16.7.5-25 1-10-1.6-19.7-2.5-29.5-3.8 5-7.5 10.1-12.5 14-8.5 2.8-17.6 3.7-26.5 4.4-5-.4-10-1.3-15-2.2a87 87 0 0 1-9.6-5.2c-3.7-3.2-7-6.9-10.4-10.3m123.5 124.3c-2 6.7-2 13.7-2.5 20.7-1.5 6.5-2 13.2-2.6 19.9.2 5.4 1 11 2.4 16.2 3 8 6.8 15.6 10.5 23.3 8.7 16.5 14.1 34.4 21.3 51.6 5 11.9 7.9 24.5 13.7 36 2.6-2.3 5-5 7.2-7.6 1.7-4.4 3-9.3 1.6-14-2.7-16.2-10.5-30.9-17-45.8-4.9-13.5-6.7-27.9-11.3-41.4-1.5-5.3-4.5-10-5.7-15.4-1.6-6.2-4.8-11.9-6-18.2-1.3-5-2-10.3-3.7-15.3-1.7-3.5-3.4-7-4.2-10.8l-3.7.8M86 553c-.6 7.2-.9 14.4-1.2 21.6-.9 22.7-2.5 45.4-3.8 68-1.4 25.8-5.2 51.3-6.3 77-.6 14-1.4 28-2.2 42 .1 12 .4 24.2-2.9 36-1.4 6 .3 13-3.7 18.1.5 1.8.8 3.7 1.7 5.4 1.8 1.6 3.8 2.9 5.7 4.3.1-5.6-.3-11.3.7-16.9 2-14 3.6-28 6.7-41.8 1.6-3.6 4-6.8 6-10.2h-5.2l4.5-31.9c2.2-12.8 2.3-25.9 3.4-38.9a547 547 0 0 1 8-73c.6-7.3.6-14.8-1-22-3.1-12.7-8-24.9-10.4-37.7m77.5 185.2c10.3-.3 20.5-.5 30.7-1l30.9-2.8c-13.7-28.4-27.1-56.9-40.9-85.2-6.7 29.7-13.8 59.3-20.7 89z"/>
</svg>