<svg version="1" xmlns="http://www.w3.org/2000/svg" viewBox="0 0 2600 2600">
  <path d="M1423.5 242.6a304 304 0 0 0-157.5 52.8c-64.3 43.6-116.2 113.4-143.6 193a409.4 409.4 0 0 0-23.4 120.3c-1.2 22.8-.4 28.5 6.2 45 10.7 26.9 39.6 69.3 71.6 104.9l8.9 10 .6 11.4c.6 12.8 3.8 26.3 10.7 46.5 11.6 33.4 31.5 73.9 42 85 2.1 2.2 3.1 4.7 3.9 9.8 5.4 31.6 40.5 85.7 77.1 118.8l8.2 7.4-.5 29.5c-.6 29.3-2.2 47.3-5 55.4-1.3 3.7-1.6 3.9-9.8 6.3-21.5 6.2-51.3 24.3-71.5 43.5l-6 5.8-32.5 9.5c-133.4 39.4-222.8 71.7-240.7 87.1-2.4 2-5.3 5.7-6.6 8.3-8.9 17.5-29.7 78.1-61 177.5a995.5 995.5 0 0 1-8 24.4c-1.8 1.7 5.1-32.1 10.5-51.8a9313 9313 0 0 1 11.3-41.2 777 777 0 0 0 9.2-37c2.7-13 2.7-14.1 2.9-54.3.2-22.6.8-51.6 1.4-64.5 1.7-37.5 1.7-49-.2-52.6a9 9 0 0 0-4.4-4.1c-4.9-1.7-9.1.3-16.5 7.7l-6.9 6.9 3.1-5.3 3-5.3-2.5-1.1c-2.2-1-2.6-.9-4 1.8a11 11 0 0 1-2.4 3.4c-.7.5-64.2-37-66.2-39.1-.4-.5.6-5.8 2.2-11.8 6.4-24.1 4.6-39.5-4.9-41.8-6.8-1.6-19.5 6.4-27.8 17.7a46 46 0 0 1-5.5 6.6c-.4 0-24.7-13.9-54-30.8l-55.8-32.1c-2.1-1.2-2.7-.9-6.5 2.7a17.5 17.5 0 0 1-6.9 4.7c-3.4.9-8.8-1.2-8.1-3 .4-.8-3-3.3-9.5-7-11.4-6.4-18.5-9.4-23.9-9.8-2.6-.3-13.3-5.9-37.7-20a478.9 478.9 0 0 0-35.9-19.7c-1.1 0-1.7.2-1.5.4l35.4 20.5c19.3 11.1 35.5 21 36 21.9 3.8 6.4 28.4 23 32.3 21.8 5.2-1.7 8.6 6.8 5.9 14.8l-1.6 4.6 5.7 3.3 57.5 33.2c33.9 19.6 51.3 30.1 50.5 30.7-.7.4-2.8.8-4.6.8-1.8 0-5.4.5-8 1.1a250.4 250.4 0 0 0-37.7 16.4c-9.9 6.2-14 13.7-11.6 20.6l1.1 3.4c0 .1-2.6.5-5.7.8-18 1.9-27.6 11.8-27.7 28.6-.1 4.2.2 9.5.7 11.8l.7 4.3-4.8 2.4c-12.7 6.4-14.6 14-12.2 47.8 1.1 15.8 2.9 24.9 6.9 36.2 34.2 95.6 45.5 125.1 58.7 152.6l7.4 15.6v10.1c0 36.4-14.4 98.5-72.5 313.4C605 2039.8 589 2109 589 2145c0 17.9 9.8 49.5 24.2 78.4 30 59.9 72.4 96 106.6 90.7 22.5-3.5 56.6-20.5 84.1-41.9 18.5-14.4 38-35.2 49.2-52.5l5.7-8.9.6 5.4c.3 2.9 1.2 23.1 2.1 44.8.8 21.7 1.8 42.8 2.2 46.8l.6 7.2 524.6-.2 524.6-.3 7.3-27c31-115.1 53-213.8 55.4-249 .3-3.3.6-4 2.3-3.8 68.6 6.8 87.7 8.5 88.2 7.9 1.4-1.3 10-89 13.3-135.1 5.1-72.4 6.4-112.6 5.7-186.5-.6-60.2-1.1-75.4-4.3-117-9.9-130.6-36.2-244.8-75-325.8-6.8-14.2-7.9-16-15.1-23.2-16.6-16.6-45.2-31.3-89.6-46.1-23.5-7.9-56.2-16.9-107.5-29.8-26.2-6.6-56-14.3-66.1-17.1-18.2-4.9-18.5-5.1-23.6-9.9-13-12.3-36.6-23.8-65.3-31.7-2.1-.6-9.9-18.2-15.3-34.4a608 608 0 0 1-17.3-68.5c-5.7-29.2-5.7-26.5.8-38.2a293.5 293.5 0 0 0 29.6-77.4c1.1-5.3 2-10.6 2-11.7 0-1.4 1.3-2.4 4.5-3.7 15.5-5.9 33.3-28.3 45.8-57.7 17.3-40.5 22.1-81.6 11.7-101.7a30.2 30.2 0 0 0-11-11.6c-2.8-.9-2.6-1.6 1.6-5.6 9.2-8.7 52-53.7 61.4-64.4 34.4-39.4 50.3-66.4 50.3-85.4-.1-8.7-3.6-19.2-12.9-38.1-28.3-57.8-80.9-127.1-133.3-175.7-63.3-58.6-127.8-93.1-190.6-101.8a300.3 300.3 0 0 0-43-1.9zM855 1202.8l24.9 13.8c.2.2-.7 2-1.9 4.1-1.2 2-1.8 3.9-1.3 4 3.2 1.2 3.4 1.9 1.8 7.8a311 311 0 0 0-3.5 28.4c-3.6 38.6-6.4 51.7-12.1 56.6-4.7 3.9-5.5 3.5-10.2-6a275 275 0 0 1-20.2-55.8 1146 1146 0 0 1-6.5-65.9c0-2.7.2-2.8 2.3-1.7l26.7 14.7zm-80.3 4.8c2 .6 2.1 1.2 2.5 15.7l.3 15.4c-.1.1-2.9-2.3-6.4-5.5-5.6-5.1-6.6-6.5-8.7-13.1-1.3-4-2.4-8-2.4-8.7 0-3.4 8.2-5.5 14.7-3.8z"/>
</svg>