<svg version="1" xmlns="http://www.w3.org/2000/svg" viewBox="0 0 2600 2600">
  <path d="M1863.5 589.7a153.7 153.7 0 0 0-74.4 32.1c-3.5 2.9-4.6 3.3-6 2.4-6-4.3-15.6-9.4-21.1-11.3a66.6 66.6 0 0 0-36.5 0c-21.7 7.4-41.1 21.8-61.9 46.2a422.6 422.6 0 0 0-80.4 153.9 102.9 102.9 0 0 0 0 48.1c5.5 21.8 13.3 40 38.3 89.1 20.9 41.1 23.3 47.3 44.1 114.3 13.9 45 22.8 67.8 35.5 91.1 6.5 11.9 15.5 26 21.9 34.4 4.7 6.1 4.7 6.4.9 5.7-7.1-1.4-44.6-4.8-72.8-6.7a433 433 0 0 1-29.8-2.4c-.3-.3-1.4-5.6-2.4-11.8-10.8-62.6-30.9-93.4-69.9-107.2l-7.6-2.7-10.4-50.4c-8-38.9-10.7-50.6-11.9-50.9-.9-.3-45.8-8.2-99.8-17.6l-98.3-17.2-33.7 19.3a942.6 942.6 0 0 0-34.9 20.3c-.8.8 3.6 17.2 16.3 60.6l17.6 59.6c.1.1 17.8-2.1 39.2-4.8 37.3-4.8 39.4-4.9 48-3.8 5 .7 9.1 1.3 9.3 1.5a73 73 0 0 1-6 6.6 55.8 55.8 0 0 0-16.5 40.4c1.2 12.7 7.7 25.7 22.5 44.7 4.9 6.2 9.2 11.9 9.6 12.6.5.8-.6 2.8-2.9 5.4-9.9 10.9-11 22.5-3.7 38.1 2.3 4.8 5.7 11.4 7.6 14.5 1.9 3.1 5.2 9.3 7.5 13.8l4 8.1-4.6 9.1a33.5 33.5 0 0 0-5.1 19.4c-.3 6.8.1 13.3 1.2 19.3 3.3 18.7 1.5 24.5-9.6 30.1-8.4 4.3-20.2 6.3-70.8 12.1-48.7 5.6-50 5.6-78.5 5.7-26.1.1-30.3-.1-41.7-2.2-17-3.1-26.2-5.8-52.8-15.9-25.3-9.6-63.2-23.3-82-29.8a883 883 0 0 0-41.8-12.4c-43.6-12.2-64.5-20-76.2-28.6-14.2-10.4-21.1-32-28.5-89.5-4.3-33.3-5-37.7-7.6-50.5l-2-10 4-11.7 3.9-11.7-2.4-47.2c-1.3-26-2.5-47.3-2.7-47.5-.1-.2-18.1-7.1-39.8-15.3l-39.5-14.9-20-12.6-19.9-12.5-32.3 4.9c-17.8 2.7-32.5 5-32.6 5.2l-5.1 17.2c-2.7 9.2-5.4 17-5.9 17.1-.6.2-44.1 1.1-96.6 1.9-52.5.9-99.6 1.8-104.7 2.1l-9.2.4-4.4-6.7c-13.3-20.5-36-35.4-56.4-36.9l-7.3-.6v15.2l-5.6.7a73.8 73.8 0 0 1-38.3-7.7c-14.6-6.8-24.4-14.2-40.7-30.5l-15.1-15.1 1.3 5c3.2 12.4 13.1 25.1 28.7 36.9 4.5 3.3 8.1 6.5 7.9 7.1-.8 2.7-7.4 11.7-8.2 11.2-.5-.3-7-1.9-14.5-3.5-7.4-1.6-15.6-3.8-18.1-4.9-6-2.7-6.3-2.6-3.3.6 1.4 1.6 4.4 5.4 6.7 8.5l4.3 5.8h-15.8c-18.4 0-31.8-.9-72.6-5-16.4-1.7-32-3-34.5-3l-4.7.1 5.6 5.2c7.1 6.5 17.7 12.1 34.4 18.2 7.2 2.6 16.4 6.5 20.5 8.5 7.8 3.9 18 11.3 18 13 0 .6-1.9 3.1-4.1 5.5a22 22 0 0 0-3.8 4.8l4.4 2.8c2.2 1.3 6 4.1 8.3 6.3l4.4 4-14.9 4.9a143 143 0 0 1-20.1 5.4c-2.9.3-5.5.9-5.7 1.3-.9 1.5 31.7 9.4 59.2 14.4 66.4 12.2 123.8 12.9 154.8 2 3.9-1.4 7.6-2.6 8.3-2.7.7-.1 7 10.5 14.5 24.3l13.3 24.5 36 .5 35.9.5 26 9.8 26.3 10.1c.1.2-.8 2.5-2 5.2-3.3 7.5-3 15.6 1 23.5 1.7 3.5 5.1 8.6 7.5 11.4l4.4 4.9-3.8 4.9c-12.2 16.2-7.5 36.3 10.3 43.7l5.7 2.3-4.6 5.1a32.6 32.6 0 0 0-9.8 23.1c0 5.8.5 7.8 2.7 11.7a34.3 34.3 0 0 0 14.5 13c1.8.7 3.3 1.6 3.3 2 0 .5-1.3 2.6-2.9 4.9-7.2 9.9-7.8 20.1-1.8 32.1s16.7 21.6 29.4 26.4c14.3 5.4 26 7.2 62.7 9.9 25.9 1.9 36.4 3.9 57 10.9 41.1 13.9 61.7 29.2 89 66.1a191.7 191.7 0 0 0 86.6 68.6c21 8.8 38.7 14.1 85 25.5 50.5 12.5 63.1 16 81 22.6a195.3 195.3 0 0 1 71.4 43.4c7.3 7.4 13.3 14.6 36.1 43.5 22.4 28.5 42 44.1 62 49.5a100 100 0 0 0 33.3 1.4c4.2-.7 19-4.1 32.7-7.5 28-7.1 36.3-8.5 50.4-8.5 22.5 0 43.8 10.6 51.8 25.6 7.8 14.7 9.8 28.3 9.7 63.9-.1 29.1-1.2 44.4-6.9 94-1.9 16.5-4.4 40.8-5.5 54-2.4 28.5-4.4 47.7-11 104.8-2.8 23.5-5 43.2-5 43.7 0 .7 154.2 1 444.8 1h444.8l-2.3-24.8a721.8 721.8 0 0 1-3.1-86.7c1.1-25.2 10.6-108.7 18.4-161.7 5.1-34.9 8.3-46.4 27.4-96.8 14.9-39.1 20.2-57.2 40.2-135.5 22.4-87.9 25.6-144.5 10.6-187.4a561.6 561.6 0 0 0-28.2-58.6c-9-15.8-25.6-40.9-34.2-51.5-8-9.9-18.1-20-24.2-24.2-14.5-10-40-14.5-75.5-13.4-61.6 1.8-79.9 1.9-91.7.2-30.8-4.6-48.7-16-73.5-47-8.7-11-39.9-54.9-47.2-66.4-9.9-15.9-12.1-26.5-8.4-41.1 1.9-7.8 4.4-14.3 17.1-45.1 12.6-30.4 17.4-55.4 20.5-105.5 1.8-28.8 2.4-35.7 6.5-66.5 3.9-29.3 5-42 5-55.8 0-34.3-8.9-68.2-23.6-90.4-9.7-14.5-19.7-23.5-51.9-46.2l-30.7-21.9c-36.7-26.6-73.5-43.1-107.3-48.2-9-1.3-29.4-1.8-37-.8zM359.8 683.7c-1 .2-1.8.6-1.8.8l14.5 25.7c15.8 27.5 21.2 34.3 31.1 39.5 4.5 2.3 5.4 2.5 6.9 1.3 7.1-5.9 6.3-22.1-2.1-38-10.1-19.2-24.9-30.2-40.6-29.9-3.5.1-7.1.3-8 .6z"/>
  <path d="M665.5 787.9c-1.9.4-2.9 1.3-2.7 2.2.2.8 6.5 12.2 14 25.4 15 26.4 20.3 33.1 30.1 38.4l5.8 3 2.2-2c3.1-2.9 4.1-6.1 4.1-13.3a64 64 0 0 0-32.1-50.6 37.2 37.2 0 0 0-21.4-3.1zM499.8 887.7c-1 .2-1.8.9-1.8 1.3 0 .5 6.5 12.3 14.5 26.2 12.1 21.1 15.5 26.2 20.5 31 5.9 5.6 12.4 9.8 15.4 9.8.8 0 2.5-1.5 3.8-3.3 3.4-4.7 3.2-17.4-.4-26.9-7-18.6-20.5-33.1-34.7-37.2a41.4 41.4 0 0 0-17.3-.9zM1108 922.3c-6 1.7-11.4 5.1-14.1 8.8-1.2 1.7-2 3.2-1.7 3.4.2.2 8.6 2.5 18.8 5 19.9 5 28.1 5.7 34.4 3.1 3.9-1.6 4.4-3.2 2.1-7.6-4.7-9.1-27-16.3-39.5-12.7zM1241.2 1149.1a28 28 0 0 0-7.1 5.6l-2.9 3.6 19.9 29.9c11 16.5 22.1 31.9 24.6 34.4 5.3 5 13.4 9.4 17.4 9.4 2.3 0 2.8-.6 3.8-4.4a46.3 46.3 0 0 0-1.3-23.8 101 101 0 0 0-24.1-45.5c-10.5-10.6-21-13.8-30.3-9.2zM801.2 1607c-2.4 1.1-4.2 2.4-4 3 .5 1.6 29 25 33 27.1 2 1 5.7 2.3 8.3 2.9 6.4 1.4 7.9.2 7.3-6.2-1.3-13-20.8-28.8-35.6-28.8a25 25 0 0 0-9 2z"/>
</svg>