<svg version="1" xmlns="http://www.w3.org/2000/svg" viewBox="0 0 2600 2600">
  <path d="M1187 111c-11 2-23 6-42 14l-28 12-10 3-6-3-13-7c-26-14-55-6-86 23-13 13-27 30-46 56-20 28-25 34-49 59-22 23-34 37-41 48-9 16-14 37-13 53l5 31a739 739 0 0 1 17 153c-2 32-5 45-18 93-12 40-15 55-16 73-1 22 3 39 12 59 4 9 16 27 18 29l-1-6c-5-13-7-25-8-46l1-27v-7l4 3c7 6 18 13 41 24 26 12 37 20 45 29 13 15 20 33 28 63 7 27 12 39 21 48s22 13 40 13h9v12l1 19c4 30 3 41-2 52-4 8-13 17-24 24s-15 9-35 17c-30 13-44 22-56 35-18 19-29 45-44 100a933 933 0 0 1-66 178c-10 19-17 31-35 59-25 37-34 54-42 74-9 21-12 40-12 64 0 20 1 26 13 111 14 99 15 128 8 215a739 739 0 0 0 0 186c4 81 10 136 20 205 5 31 7 45 9 85a1259 1259 0 0 0 11 106c4 9 15 17 23 17l9-2c13-3 21-1 32 8 13 11 28 15 41 13 21-4 22-3 40 5l16 7a512 512 0 0 0 184 10l76-5c200-13 255-19 305-36 15-5 34-14 44-21 10-6 22-18 27-25 8-12 10-23 12-48v-13l7-4c7-4 25-21 26-24 0-3-8-152-10-164v-4l24-17 23-18v-51c0-59 1-53-13-61l-9-6 2-7 5-21 3-14 50-34 51-35c6-9 7-24 3-39-7-29-28-65-52-90-11-12-16-15-21-15-8 0-24 10-46 29a1091 1091 0 0 0-70 70l-10-28-10-28v-21c0-24 0-23 13-60a1670 1670 0 0 1 115-254l8 1c28 7 53-6 74-37 15-22 26-49 41-102a294 294 0 0 0-33-246c-12-20-18-32-21-43-2-7-3-9-2-29 0-27 2-56 6-75 6-29 7-36 8-48 1-29-9-44-33-48l-7-1v-18c0-20-1-26-6-37s-16-20-29-22l-6-1v-26l16-17 21-22c6-7 10-9 76-49a652 652 0 0 1 89-48c12-6 21-20 25-35 3-17 0-54-6-72-4-12-13-23-21-26-3-1-3-2-3-4l1-16c1-19 1-18 8-23s14-13 18-20c5-11 2-23-8-34-9-8-12-10-19-11-17-3-36 7-46 25-3 6-5 7-70 56l-67 51-20 1-21 2-40 32-39 30-4 15c-17 52-30 105-34 137-2 18-1 30 4 51l3 18c-2 1-16-7-20-11-8-8-10-15-11-26 0-11 1-20 6-36 8-26 12-42 15-56s3-16 3-38c0-26 0-31-6-55-19-75-55-167-92-236-33-60-66-107-101-140-29-28-62-46-106-56-15-3-40-4-52-1z"/>
</svg>