<svg xmlns="http://www.w3.org/2000/svg" viewBox="0 0 109.3 256.5">
  <path d="M52.3 7.1c-4.5.2-6.5 3-7 4-.5 1.2-7.1 11-7.1 11l-4 5.4v.3a21 21 0 0 0-2.8 6l-.5 2.2 1-.8.8-2.8 1.5-3.8v5a8.5 8.5 0 0 1-1.8 4.3v4.9s-.5.8-2 1.1c-1.4.3-2 0-.8.7 1.1.6 1.6.4 1.6.4l-1.4 3.1s-4.7 4.9-6 6.5-11.9 12.8-11.9 12.8-6.3 7-6.3 9.9c0 2.9 3 5.5 3 5.5L19.5 96c.8 1 1.1 3.7 1.6 6.6.5 3 6.8-2.6 6.8-2.6s1.6 1.5 2.6 2 2.4-.7 2.4-.7.4 7.2.2 8.6c-.2 1.5-.7 13.8-.5 24a400 400 0 0 1-6.6 44.7l6.5 1.6s-.9 5.2-.2 11c.6 5.9 4.5 24.2 4.5 24.2l.5 8.4-.6.4-.7 2 .2 2s-.8 2.3-.7 4.6c.2 2.2 1 3.8 1 3.8s.3 3 1.5 5c1 2.2 6.6 3.5 6.6 3.5l3.3-.2-1.5-7.1-.7-2.8s-.3-3.9-.3-8c0-4.3-2-9.3-2.4-13.7s1-8.7 1.5-13.4c.4-4.7 1-18.2 1-18.2s7.7.5 14.7.6c7 .2 13-.8 13-.8s.4 4.6 1 8.1c.7 3.6 2.3 7 2.8 9l3.8 14.9-.5 8.2s-3 4.6-2.5 6.7c.4 1.4 2 4.2 2 4.2l.1 9.2 1.2.7s-.2-7.8 0-8.8c.1-1 .8-.3 2 .5s1.7 7.6 1.9 9c.1 1.5 4 1.9 4 1.9l10.7-.7-6.6-5.2s-1.2-3.5-1.2-5-.6-6.3-.6-7.3-.5-2.7-.7-4.2c-.1-1.5-1.4-9.4-1.4-9.4s-.3-28.7-.5-30.1l-.7-4.4 2.8-1-2.3-8.7-3.2-20.5c-1.6-10.3-9.4-36.9-9.4-36.9v-5.7l1 .2s-.4-4-.4-6.5S74 88.1 74 88.1l-.3-3.4c0-.8 1-3.5 1-3.5s4 7.1 6.4 6.5c5-1.4 8.3-4.1 6.8-19.5-1.7-18.4-4.2-24.8-4.2-24.8L78 42c-2-.5-7.5-2.6-7.5-2.6l.7-1.8.5-3.4 1.7 2.2-1.2-3.5.4-1.8-.6-2.3s-.5-3.2-1.3-5.6c-.8-2.5-3-6.7-5.5-10a15.5 15.5 0 0 0-12.8-6zm18.5 20.4l.8 1.7.3 2-.8 1.5-.3-3.9v-1.3zm-29.4 2.1L40 32.7l-2.3 1.5 1.8-3.3 2-1.3zm28.7 4V38l-.3.8-1.3-.6.8-2 .8-2.4zm-33.7 3.7l-.8 2.5-1.5 1 .9-2 1.4-1.5zm.3 3l.3 1.8-2 .5 1.7-2.3zM32.3 65c.3 0 .5.2.7.4 1 1.3 3.6 8.4 3.6 8.4l2.6 6.7 1.4 3.4V88l-1.4.4-5.7 6S29.9 89 28 87.8s-4.7-3.7-5.4-4.8c-.6-1.2-3.5-4.3-2.6-5.9 1-1.6 4.2-7.4 6.8-9 2.1-1.4 4.3-3.2 5.5-3.2z"/>
</svg>