<svg xmlns="http://www.w3.org/2000/svg" viewBox="0 0 304 719" version="1">
  <path d="M162 111l-16-28h-9l-6-3-7-14-2-5 1-5c3 1 3 0 3-3l-8-6 2-7-4-10 1-8 11-11 13-8c2-1 2-4 4-3l19 2 13 1 10 9 5 7c1-2 2-3 2 0-1 2 0 4 2 5 1 1 2 2 1 4 1 2 0 4-1 5-2 1-3 3-2 5 0 3-1 6 1 8l4 6c-1 4-2 8-1 12l3 12c-1 3-1 7-3 9l-3 6-4 13-6 9-9 6c-2 0-5 1-6-1l-8-7z"/>
  <path d="M172 79l11-4 6-3"/>
  <path d="M73 335c-8-3-29 2-29-8 6-6 4-12 0-18 1-8 1-16 4-24 7-2 1-7 2-11s5-7 6-11v-21c3-3 9-4 8-10 0-5-2-11 2-16 5-5 1-12 4-18l11-46c0-7 4-14 6-22 6-7 10-15 18-21l16-13c2-6 3-13 7-18 3-3 9 0 13-1 26 1 52 3 78 2 7-1 12 6 20 4 4 1 10-2 13 3 2 4 5 8 1 12 4 2 11 0 14 5 7 8 11 18 15 28 7 16 12 34 16 51 2 10 5 19 4 29l2 49c-3 13-11 23-17 35-5 9-12 18-19 26l-16 9c-3 7-5 19-10 7l-25-25-60 20h-18c-14-9-27-18-41-24 2-4-5-10-7-8-5 9-8 19-15 26l-3 9z"/>
  <path d="M40 345l-4 5c-2 1-3 3-3 5l3 6 5 4 3 7 9 4h4v-5l5 2c4 1 5-1 5-3l-3-8-1-8v-6l3-5 5-14-25 2z"/>
  <path d="M45 369l-3 31-3 6 4 2L7 691H5l-5 17 14 2 2-3-2-12 36-289s5-2 5-4c1-1-2-4-2-4l3-25zM139 300l-40 7c-4 4-8 8-7 14 0 9 2 19-3 27-4 13-4 27-7 40 1 21 0 41-1 61l8 42c-2 14-6 28-4 43 4 50 3 100 8 149 6 4 8 9-1 9l-24 8c-7 10 13 15 21 15 26-3 53-4 79-6 2 2 3 10 10 9 11 0 23 1 34-2 8 0 16-7 25-6 5-4 2-10 1-15 2-4 7-10 7-14-6-4-8-11-9-17-4-11-1-23-2-35-1-16 2-32 1-48-1-9-7-17-3-25 2-8 2-15 0-22-3-11 3-21 4-32a411 411 0 0 0 1-75c2-9 3-19 6-27l2-10 1-12c0-19 0-37-2-56l-2-22zm19 134c5 28 7 57 14 85 5 13 0 27 5 39 6 13 3 26 3 39 1 19-1 39 4 57l3 17c-7 4-9 12-14 19-2-5 0-12-4-16-4-2 1-10 0-15s-6-10-8-16c-4-5 0-12 0-19 1-12-4-23-4-35 1-6 4-12 0-18-3-6 3-12 1-18l-1-35-11-13 7-25c-1-5-4-11 0-16 1-9 0-18 4-27z"/>
</svg>