<svg version="1" xmlns="http://www.w3.org/2000/svg" viewBox="0 0 2604 2604">
  <path d="M1279 208l-16 6-6 1-2 1-13 15-1-1-5-15c-2-4-3-4-6 6l-9 13a131 131 0 0 0-31 62c0 5-5 16-14 30-12 20-13 24-8 20l4-2c2 0 1 5 0 10-2 6-1 15 1 15a251 251 0 0 0 23 78c1 5 5 11 5 8 0-4 2-2 8 6 14 20 16 24 17 32l2 11c1 3 1 4 4 4s3 1 7 6l3 8c0 2-11 6-18 7l-10 2c-3 1-6 6-9 13-3 10-12 21-22 28l-4 4 4 2c6 2 6 2 1 8l-5 5-2-3c-8-9-18-7-37 7-12 9-20 13-35 17-38 10-48 14-57 24-12 12-17 24-23 56l-4 26c-3 10-9 25-20 46-12 25-18 40-21 50-3 12-2 23 3 46l5 19v27l-1 32-1 6-16 9c-28 17-62 40-71 49-8 8-12 17-16 31a667 667 0 0 0 8 155c7 14 38 43 60 56a112 112 0 0 0 26 12c1 1-1 14-3 21-2 6-3 8-11 16-9 9-10 11-11 16l-7 22c-6 17-12 46-12 56 0 6 1 7 11 19 8 9 12 11 22 16 10 4 16 7 21 15 9 13 14 17 22 18 4 1 13-1 18-5l3-3 3 2 4 2h3v18a5353 5353 0 0 0 5 233c-1 35-2 47-7 74-4 18-5 28-2 38 2 9 6 16 13 23l8 12c3 9 9 23 17 37 12 22 11 20 12 67 1 42 2 53 7 75 3 13 8 29 13 38l3 7-1 11c-2 11-5 58-5 71v6l-6 6a64 64 0 0 0-21 48l-1 17c-2 12-1 19 1 23l7 7c3 3 7 7 7 10 4 8 11 12 21 14 7 1 31-2 42-5 10-2 19-6 26-10 5-4 20-16 24-21 5-5 17-29 21-41l9-45v-7h4c4-1 9-5 10-10v-26c-1-10-1-14 1-21l1-21c-1-22-1-23 2-30 6-13 7-16 6-47 0-32-1-43-5-55-2-6-4-11-18-31-6-10-8-16-9-28-1-11-1-55 1-84 1-17 1-17 4-22 10-15 14-27 15-46 1-8 2-17 4-22l5-21c3-10 3-13 4-28v-16l4-10c6-15 7-20 10-55l4-38v-6l9 3 18 8c9 5 10 5 11 9 3 11 3 21 2 66l-1 101c0 57-1 73-4 93-4 25-3 31 5 47l4 9-4 25c-12 65-14 84-11 137 3 44-1 74-12 110-5 15-6 23-6 30 1 7 3 11 8 16l3 4-5 6c-31 39-37 74-18 100l15 15c11 9 14 13 20 27 6 17 13 24 31 33 25 13 50 17 70 14 23-5 43-16 50-28 6-10 11-30 9-39-1-11-4-16-15-27-16-16-17-19-20-51l-4-24-3-11 5-5c6-6 10-13 15-24 5-13 8-19 16-28 10-12 17-22 18-28l3-15c1-11 1-21-4-67-8-63-10-94-7-117 2-21 4-29 14-56 8-23 10-48 6-100-3-45-3-44 3-63l11-30c17-44 18-53 16-107l-2-61c-1-34-3-60-6-79l-1-11 13-21 16-25c3-7 2-14-4-32l-10-33a849 849 0 0 0-26-96c-3-4-3-4-4-29-2-23-2-26-4-33l-6-11-6-12c-4-7-4-8-4-16l1-16c2-7 2-8 1-22l-1-16c-1-1 1-2 8-2h9l1 11c1 12 4 26 10 54l8 36c4 23 4 24 21 50 24 38 32 56 39 81l9 27 5 16-2 6c-6 10-10 35-9 49l4 20 4 28c1 17 1 19 5 23 3 2 9 2 12 0 5-5 10-22 10-39 1-11 3-20 5-22l-1 12-2 18c-2 18-3 25-8 33-8 11-10 24-6 32 4 7 10 8 17 2 3-4 5-4 7-4 6 2 11-1 17-7 7-8 10-9 14-9 5 0 8-5 15-24l12-26c4-7 4-10 1-26a788 788 0 0 0-31-117l-5-18-6-23c-6-18-8-24-17-62l-28-120-6-20 4-2c7-4 8-8 10-39 2-16 2-21 1-30v-16c1-10 1-19-1-22-1-3-8-7-10-7-3 0-4-3-4-15-1-17 1-46 3-54 4-11 3-23 0-32-3-6-3-7-3-22l1-24c2-9 2-16-2-23l-1-22-2-25c-3-10-10-24-17-31l-8-14-5-10c-3-5-9-10-11-10s-4-1-6-5c-7-11-17-16-34-16h-9l-8-6-21-14-15-11-2-4 2-3c3-3 2-4-9-17-8-10-12-17-13-23-1-2-2-3-6-4l-14-1h-9l-6-5-11-8-5-2 1-8c1-15 3-31 5-35 1-4 4-7 6-5l7-26 5-18 2-13 2-14c1-3 1-4 2-3 3 2 3-1 3-12a200 200 0 0 0-17-66l-9-17-17-31c-14-21-17-27-17-30 0-5-1-5-5-2l-5 2c-2 0-1-5 2-9l3-7-10-1c-9 0-9 0-9-2s2-4 5-6c11-7 12-6-14-5-15 0-25 1-29 2h-6l4-4 4-5c1-2 1-2-3-2l-13 3zm111 258l2 6h-2c-3 0-3 0-3-6 0-7 1-7 3 0z"/>
</svg>